<?xml version="1.0" encoding="utf-8" ?>
<svg xmlns="http://www.w3.org/2000/svg" xmlns:xlink="http://www.w3.org/1999/xlink" width="1024" height="1024">
	<path transform="scale(2 2)" d="M246.681 79.7245C315.664 78.5976 375.027 110.348 409.831 170.572C413.813 177.462 417.962 184.582 420.256 192.247C428.524 192.51 444.384 190.24 450.462 195.612C461.404 205.281 454.486 220.992 439.717 221.293C430.229 221.487 420.711 221.299 411.221 221.295L358.742 221.291C348.881 221.278 330.928 222.428 321.87 221.131C306.506 218.931 306.169 195.399 321.334 192.515C324.037 192.001 326.953 192.209 329.697 192.215L388.279 192.247C379.566 170.998 356.771 146.881 338.284 134.321C273.254 90.1411 182.189 104.898 137.61 170.698C141.652 171.491 145.653 172.13 149.618 173.284C226.588 195.669 216.675 307.552 141.146 317.659C134.942 318.489 128.796 318.36 122.562 318.255C162.562 405.782 279.223 428.794 351.827 366.828C380.441 343.279 397.471 308.103 401.876 271.623C397.272 271.998 392.379 271.634 387.739 271.632L322.907 271.633C316.067 271.634 309.107 271.897 302.288 271.419C285.886 270.271 264.663 258.258 256.997 243.212C249.411 228.324 268.693 214.439 280.05 226.502C282.277 228.867 283.906 231.693 286.264 233.975C295.593 243.003 305.692 243.489 317.861 243.509L400.461 243.511C421.276 243.474 432.061 239.221 431.109 264.75C426.577 386.28 301.517 463.824 187.739 417.747C143.3 399.751 107.296 361.752 90.7544 316.877C89.3932 313.184 88.4855 309.249 86.9341 305.641L86.8123 305.365C44.0937 273.677 46.7736 209.607 91.7574 180.941C103.519 173.446 98.0647 178.423 105.051 166.56C130.102 124.025 172.69 93.2121 221.131 83.1022C229.574 81.3401 238.119 80.6572 246.681 79.7245ZM127.332 199.892C86.0754 203.261 69.7606 253.737 102.208 280.228C110.557 287.044 121.105 289.666 131.714 289.495C157.888 287.297 176.557 265.745 174.088 239.394C171.941 216.475 150.344 198.141 127.332 199.892Z"/>
</svg>
